<svg width="668" height="160" viewBox="0 0 668 173" fill="none" xmlns="http://www.w3.org/2000/svg">
<path fill-rule="evenodd" clip-rule="evenodd" d="M225.971 0.341963C264.298 -3.80715 295.442 30.9195 331.75 43.8761C370.877 57.8387 418.41 52.6534 449.566 80.133C480.683 107.577 492.305 151.635 500.127 192.38C507.585 231.233 505.632 271.897 493.612 309.589C482.386 344.791 457.515 373.193 433.509 401.281C412.074 426.361 387.467 447.658 359.994 465.925C333.203 483.739 302.469 492.39 273.986 507.35C236.721 526.921 207.022 570.643 164.993 568.339C124.841 566.137 97.5515 525.434 69.98 496.163C45.0074 469.65 37.9048 430.343 11.4415 405.318C-26.9867 368.978 -95.067 364.981 -118.75 317.691C-140.523 274.214 -118.935 220.516 -104.335 174.136C-89.6725 127.562 -78.0418 68.1301 -33.7297 47.623C16.6283 24.318 75.3289 75.6646 129.921 65.7257C168.446 58.7117 187.04 4.55658 225.971 0.341963Z" fill="url(#paint0_linear)"/>
<path fill-rule="evenodd" clip-rule="evenodd" d="M225.971 24.342C264.298 20.1928 295.442 54.9195 331.75 67.8761C370.877 81.8387 418.41 76.6534 449.566 104.133C480.683 131.577 492.305 175.635 500.127 216.38C507.585 255.233 505.632 295.897 493.612 333.589C482.386 368.791 457.515 397.193 433.509 425.281C412.074 450.361 387.467 471.658 359.994 489.925C333.203 507.739 302.469 516.39 273.986 531.35C236.721 550.921 207.022 594.643 164.993 592.339C124.841 590.137 97.5515 549.434 69.98 520.163C45.0074 493.65 37.9048 454.343 11.4415 429.318C-26.9867 392.978 -95.067 388.981 -118.75 341.691C-140.523 298.214 -118.935 244.516 -104.335 198.136C-89.6725 151.562 -78.0418 92.1301 -33.7297 71.623C16.6282 48.318 75.3289 99.6646 129.921 89.7257C168.446 82.7117 187.04 28.5566 225.971 24.342Z" stroke="white" stroke-width="2"/>
<path fill-rule="evenodd" clip-rule="evenodd" d="M336.172 84.0155C303.016 83.32 273.965 106.297 241.044 110.501C194.657 116.426 134.527 78.1259 102.431 113.869C70.7705 149.128 109.667 209.152 108.904 257.659C108.35 292.899 93.206 326.871 98.5331 361.667C103.767 395.855 121.299 426.012 139.134 455.112C156.462 483.386 182.959 502.883 201.76 530.094C228.175 568.325 231.277 630.931 272.895 648.705C311.679 665.269 353.941 629.869 391.895 611.296C425.221 594.988 448.053 561.591 481.871 546.444C526.496 526.456 585.042 542.593 621.209 508.585C655.822 476.038 671.432 420.681 667.37 372.017C663.293 323.17 621.648 288.407 599.242 245.415C580.434 209.326 576.624 161.74 545.091 137.393C513.161 112.74 468.11 124.289 429.627 114.457C397.588 106.271 369.135 84.7068 336.172 84.0155Z" fill="url(#paint1_linear)"/>
<defs>
<linearGradient id="paint0_linear" x1="188.26" y1="0" x2="188.26" y2="568.426" gradientUnits="userSpaceOnUse">
<stop stop-color="#06A6FF"/>
<stop offset="1" stop-color="#D7F1FF"/>
</linearGradient>
<linearGradient id="paint1_linear" x1="379" y1="84" x2="379" y2="409" gradientUnits="userSpaceOnUse">
<stop stop-color="#66C8FF"/>
<stop offset="1" stop-color="#14ABFF"/>
</linearGradient>
</defs>
</svg>
