<svg width="440" height="225" viewBox="0 0 467 250" fill="none" xmlns="http://www.w3.org/2000/svg">
<path fill-rule="evenodd" clip-rule="evenodd" d="M361.913 -374.385C407.635 -372.334 445.211 -426.625 490.285 -418.69C533.254 -411.126 569.61 -373.753 588.609 -334.478C607.541 -295.343 578.854 -246.544 593.382 -205.569C608.451 -163.069 680.55 -142.089 672.557 -97.7104C664.229 -51.4685 576.966 -59.9349 559.312 -16.392C537.472 37.4731 602.277 107.56 569.789 155.757C542.661 196.001 475.482 187.169 427.653 178.924C382.717 171.178 356.146 113.137 310.594 111.074C252.302 108.433 196.483 196.227 146.458 166.188C99.1175 137.76 137.648 57.8805 130.768 3.09082C126.201 -33.2844 124.885 -69.6372 112.513 -104.147C96.0329 -150.118 42.8698 -184.234 46.1449 -232.96C49.2071 -278.517 97.4488 -307.048 128.407 -340.61C159.107 -373.891 183.497 -423.959 228.308 -430.441C276.635 -437.431 313.132 -376.573 361.913 -374.385Z" fill="url(#paint0_linear)"/>
<path fill-rule="evenodd" clip-rule="evenodd" d="M371.913 -394.385C417.635 -392.334 455.211 -446.625 500.285 -438.69C543.254 -431.126 579.61 -393.753 598.609 -354.478C617.541 -315.343 588.854 -266.544 603.382 -225.569C618.451 -183.069 690.55 -162.089 682.557 -117.71C674.229 -71.4685 586.966 -79.9349 569.312 -36.392C547.472 17.4731 612.277 87.56 579.789 135.757C552.661 176.001 485.482 167.169 437.653 158.924C392.717 151.178 366.146 93.1369 320.594 91.0736C262.302 88.4333 206.483 176.227 156.458 146.188C109.118 117.76 147.648 37.8805 140.768 -16.9092C136.201 -53.2844 134.885 -89.6372 122.513 -124.147C106.033 -170.118 52.8698 -204.234 56.1449 -252.96C59.2071 -298.517 107.449 -327.048 138.407 -360.61C169.107 -393.891 193.497 -443.959 238.308 -450.441C286.635 -457.431 323.132 -396.573 371.913 -394.385Z" stroke="white" stroke-width="2"/>
<path fill-rule="evenodd" clip-rule="evenodd" d="M670.019 -354.528C695.265 -313.416 731.588 -274.471 733.596 -226.268C735.603 -178.068 698.477 -138.102 680.906 -93.1733C664.466 -51.138 656.663 -6.46586 632.678 31.7694C606.707 73.1707 583.42 131.262 535.184 139.123C481.647 147.849 440.119 90.0113 389.147 71.46C355.635 59.2636 317.48 64.9101 285.877 48.3883C255.062 32.2788 231.566 5.62619 210.42 -21.9761C190.31 -48.2259 183.336 -81.3968 165.244 -109.076C141.522 -145.367 101.827 -170.383 86.8253 -211.062C69.6148 -257.728 55.4701 -311.654 73.4268 -358.039C91.1664 -403.863 134.634 -441.306 181.579 -455.822C228.993 -470.483 278.698 -428.071 327.584 -436.628C373.087 -444.593 401.977 -496.799 447.827 -502.426C495.121 -508.231 545.347 -494.627 585.012 -468.224C624.839 -441.714 644.982 -395.297 670.019 -354.528Z" fill="url(#paint1_linear)"/>
<defs>
<linearGradient id="paint0_linear" x1="360" y1="-26.5" x2="359.587" y2="185.944" gradientUnits="userSpaceOnUse">
<stop stop-color="#1DADFE"/>
<stop offset="1" stop-color="#8BD6FF"/>
</linearGradient>
<linearGradient id="paint1_linear" x1="429" y1="-177.5" x2="429" y2="189.5" gradientUnits="userSpaceOnUse">
<stop stop-color="#32AFF4"/>
<stop offset="1" stop-color="#92D8FF"/>
</linearGradient>
</defs>
</svg>
